<mxfile host="app.diagrams.net" agent="Mozilla/5.0 (Windows NT 10.0; Win64; x64) AppleWebKit/537.36 (KHTML, like Gecko) Chrome/136.0.0.0 Safari/537.36" version="27.1.4">
  <diagram name="第 1 页" id="vHibylUXFULGrBTAoTh_">
    <mxGraphModel dx="1184" dy="1340" grid="1" gridSize="10" guides="1" tooltips="1" connect="1" arrows="1" fold="1" page="1" pageScale="1" pageWidth="827" pageHeight="1169" math="0" shadow="0">
      <root>
        <mxCell id="0" />
        <mxCell id="1" parent="0" />
        <mxCell id="Sv2eiXyigtitwMc6iaWY-2" value="广义上所谓的属性是指一切代表某种作用的数值。&lt;div&gt;数据结构上可以理解为键值对。&lt;/div&gt;&lt;div&gt;不同的系统或者模块中，保存下来，然后在需要用到的时候读取或者保存。&lt;/div&gt;" style="text;html=1;align=center;verticalAlign=middle;whiteSpace=wrap;rounded=0;" parent="1" vertex="1">
          <mxGeometry width="430" height="50" as="geometry" />
        </mxCell>
        <mxCell id="y-QXYjdd82G5eTy_OHgM-3" value="" style="edgeStyle=orthogonalEdgeStyle;rounded=0;orthogonalLoop=1;jettySize=auto;html=1;" edge="1" parent="1" source="y-QXYjdd82G5eTy_OHgM-1" target="y-QXYjdd82G5eTy_OHgM-2">
          <mxGeometry relative="1" as="geometry" />
        </mxCell>
        <mxCell id="y-QXYjdd82G5eTy_OHgM-1" value="属性配置：玩家属性表" style="rounded=1;whiteSpace=wrap;html=1;" vertex="1" parent="1">
          <mxGeometry x="40" y="100" width="160" height="30" as="geometry" />
        </mxCell>
        <mxCell id="y-QXYjdd82G5eTy_OHgM-2" value="属性的常规配置是分为上层总属性类型和下层的子属性类型" style="rounded=1;whiteSpace=wrap;html=1;" vertex="1" parent="1">
          <mxGeometry x="40" y="160" width="160" height="30" as="geometry" />
        </mxCell>
        <mxCell id="y-QXYjdd82G5eTy_OHgM-6" value="" style="edgeStyle=orthogonalEdgeStyle;rounded=0;orthogonalLoop=1;jettySize=auto;html=1;" edge="1" parent="1" source="y-QXYjdd82G5eTy_OHgM-4" target="y-QXYjdd82G5eTy_OHgM-5">
          <mxGeometry relative="1" as="geometry" />
        </mxCell>
        <mxCell id="y-QXYjdd82G5eTy_OHgM-8" value="" style="edgeStyle=orthogonalEdgeStyle;rounded=0;orthogonalLoop=1;jettySize=auto;html=1;" edge="1" parent="1" source="y-QXYjdd82G5eTy_OHgM-4" target="y-QXYjdd82G5eTy_OHgM-7">
          <mxGeometry relative="1" as="geometry" />
        </mxCell>
        <mxCell id="y-QXYjdd82G5eTy_OHgM-4" value="E_EFFUP_TYPE_XXX" style="rounded=1;whiteSpace=wrap;html=1;" vertex="1" parent="1">
          <mxGeometry x="40" y="350" width="170" height="30" as="geometry" />
        </mxCell>
        <mxCell id="y-QXYjdd82G5eTy_OHgM-5" value="E_EFFUP_TYPE_XXX01" style="rounded=1;whiteSpace=wrap;html=1;" vertex="1" parent="1">
          <mxGeometry x="230" y="400" width="170" height="30" as="geometry" />
        </mxCell>
        <mxCell id="y-QXYjdd82G5eTy_OHgM-7" value="E_EFFUP_TYPE_XXX02" style="rounded=1;whiteSpace=wrap;html=1;" vertex="1" parent="1">
          <mxGeometry x="40" y="400" width="170" height="30" as="geometry" />
        </mxCell>
        <mxCell id="y-QXYjdd82G5eTy_OHgM-9" value="CASE_EVENT(E_EFFUP_TYPE_XXX, func)" style="rounded=1;whiteSpace=wrap;html=1;" vertex="1" parent="1">
          <mxGeometry x="40" y="240" width="270" height="30" as="geometry" />
        </mxCell>
        <mxCell id="y-QXYjdd82G5eTy_OHgM-13" value="" style="shape=flexArrow;endArrow=classic;html=1;rounded=0;" edge="1" parent="1">
          <mxGeometry width="50" height="50" relative="1" as="geometry">
            <mxPoint x="119.71000000000001" y="280" as="sourcePoint" />
            <mxPoint x="119.71000000000001" y="340" as="targetPoint" />
            <Array as="points">
              <mxPoint x="119.71000000000001" y="320" />
            </Array>
          </mxGeometry>
        </mxCell>
        <mxCell id="y-QXYjdd82G5eTy_OHgM-14" value="计算上层属性值+下层属性值=总属性值" style="text;html=1;align=center;verticalAlign=middle;whiteSpace=wrap;rounded=0;" vertex="1" parent="1">
          <mxGeometry x="140" y="280" width="220" height="30" as="geometry" />
        </mxCell>
        <mxCell id="y-QXYjdd82G5eTy_OHgM-16" value="src_id1" style="rounded=1;whiteSpace=wrap;html=1;" vertex="1" parent="1">
          <mxGeometry x="740" y="100" width="120" height="60" as="geometry" />
        </mxCell>
        <mxCell id="y-QXYjdd82G5eTy_OHgM-17" value="effup_type" style="rounded=1;whiteSpace=wrap;html=1;" vertex="1" parent="1">
          <mxGeometry x="560" y="195" width="120" height="60" as="geometry" />
        </mxCell>
        <mxCell id="y-QXYjdd82G5eTy_OHgM-18" value="effup_value1" style="rounded=1;whiteSpace=wrap;html=1;" vertex="1" parent="1">
          <mxGeometry x="910" y="100" width="120" height="60" as="geometry" />
        </mxCell>
        <mxCell id="y-QXYjdd82G5eTy_OHgM-22" value="src_id2" style="rounded=1;whiteSpace=wrap;html=1;" vertex="1" parent="1">
          <mxGeometry x="740" y="180" width="120" height="60" as="geometry" />
        </mxCell>
        <mxCell id="y-QXYjdd82G5eTy_OHgM-23" value="effup_value2" style="rounded=1;whiteSpace=wrap;html=1;" vertex="1" parent="1">
          <mxGeometry x="910" y="180" width="120" height="60" as="geometry" />
        </mxCell>
        <mxCell id="y-QXYjdd82G5eTy_OHgM-26" value="src_id3" style="rounded=1;whiteSpace=wrap;html=1;" vertex="1" parent="1">
          <mxGeometry x="740" y="290" width="120" height="60" as="geometry" />
        </mxCell>
        <mxCell id="y-QXYjdd82G5eTy_OHgM-27" value="effup_value3" style="rounded=1;whiteSpace=wrap;html=1;" vertex="1" parent="1">
          <mxGeometry x="910" y="290" width="120" height="60" as="geometry" />
        </mxCell>
        <mxCell id="y-QXYjdd82G5eTy_OHgM-28" value="" style="endArrow=none;dashed=1;html=1;dashPattern=1 3;strokeWidth=2;rounded=0;" edge="1" parent="1">
          <mxGeometry width="50" height="50" relative="1" as="geometry">
            <mxPoint x="890" y="290" as="sourcePoint" />
            <mxPoint x="890" y="240" as="targetPoint" />
          </mxGeometry>
        </mxCell>
        <mxCell id="y-QXYjdd82G5eTy_OHgM-29" value="" style="strokeWidth=2;html=1;shape=mxgraph.flowchart.annotation_2;align=left;labelPosition=right;pointerEvents=1;" vertex="1" parent="1">
          <mxGeometry x="680" y="130" width="50" height="190" as="geometry" />
        </mxCell>
        <mxCell id="y-QXYjdd82G5eTy_OHgM-30" value="" style="endArrow=classic;html=1;rounded=0;exitX=1;exitY=0.5;exitDx=0;exitDy=0;entryX=0;entryY=0.5;entryDx=0;entryDy=0;" edge="1" parent="1" source="y-QXYjdd82G5eTy_OHgM-16" target="y-QXYjdd82G5eTy_OHgM-18">
          <mxGeometry width="50" height="50" relative="1" as="geometry">
            <mxPoint x="1100" y="180" as="sourcePoint" />
            <mxPoint x="1150" y="130" as="targetPoint" />
          </mxGeometry>
        </mxCell>
        <mxCell id="y-QXYjdd82G5eTy_OHgM-31" value="" style="endArrow=classic;html=1;rounded=0;exitX=1;exitY=0.5;exitDx=0;exitDy=0;entryX=0;entryY=0.5;entryDx=0;entryDy=0;" edge="1" parent="1">
          <mxGeometry width="50" height="50" relative="1" as="geometry">
            <mxPoint x="860" y="209.70999999999998" as="sourcePoint" />
            <mxPoint x="910" y="209.70999999999998" as="targetPoint" />
          </mxGeometry>
        </mxCell>
        <mxCell id="y-QXYjdd82G5eTy_OHgM-32" value="" style="endArrow=classic;html=1;rounded=0;exitX=1;exitY=0.5;exitDx=0;exitDy=0;entryX=0;entryY=0.5;entryDx=0;entryDy=0;" edge="1" parent="1">
          <mxGeometry width="50" height="50" relative="1" as="geometry">
            <mxPoint x="860" y="319.43" as="sourcePoint" />
            <mxPoint x="910" y="319.43" as="targetPoint" />
          </mxGeometry>
        </mxCell>
        <mxCell id="y-QXYjdd82G5eTy_OHgM-33" value="三层存储结构，一个属性类型可以有不同的来源" style="text;html=1;align=center;verticalAlign=middle;whiteSpace=wrap;rounded=0;" vertex="1" parent="1">
          <mxGeometry x="540" y="140" width="150" height="30" as="geometry" />
        </mxCell>
        <mxCell id="y-QXYjdd82G5eTy_OHgM-35" value="取某个属性类型值时，默认是计算所有来源的属性值总和，也有接口可以获取指定来源的属性值" style="text;html=1;align=center;verticalAlign=middle;whiteSpace=wrap;rounded=0;" vertex="1" parent="1">
          <mxGeometry x="1091" y="180" width="300" height="110" as="geometry" />
        </mxCell>
      </root>
    </mxGraphModel>
  </diagram>
</mxfile>
